<mxfile host="app.diagrams.net" modified="2023-11-11T22:16:54.242Z" agent="Mozilla/5.0 (Windows NT 10.0; Win64; x64) AppleWebKit/537.36 (KHTML, like Gecko) Chrome/119.0.0.0 Safari/537.36" etag="6z4KTvR1odSuCTGNkxAx" version="22.1.0" type="device">
  <diagram name="Página-1" id="MqqeHJL2s66IkBpJs05A">
    <mxGraphModel dx="1050" dy="565" grid="1" gridSize="10" guides="1" tooltips="1" connect="1" arrows="1" fold="1" page="1" pageScale="1" pageWidth="827" pageHeight="1169" math="0" shadow="0">
      <root>
        <mxCell id="0" />
        <mxCell id="1" parent="0" />
        <mxCell id="FsQwMSM6BekYsBupdTfy-7" style="edgeStyle=none;rounded=0;orthogonalLoop=1;jettySize=auto;html=1;exitX=0.5;exitY=1;exitDx=0;exitDy=0;entryX=0.5;entryY=0;entryDx=0;entryDy=0;strokeWidth=2;" edge="1" parent="1" source="FsQwMSM6BekYsBupdTfy-1" target="FsQwMSM6BekYsBupdTfy-2">
          <mxGeometry relative="1" as="geometry" />
        </mxCell>
        <mxCell id="FsQwMSM6BekYsBupdTfy-1" value="Inicio" style="ellipse;whiteSpace=wrap;html=1;fillColor=#dae8fc;strokeColor=#6c8ebf;strokeWidth=4;" vertex="1" parent="1">
          <mxGeometry x="430" y="40" width="120" height="80" as="geometry" />
        </mxCell>
        <mxCell id="FsQwMSM6BekYsBupdTfy-11" style="edgeStyle=none;rounded=0;orthogonalLoop=1;jettySize=auto;html=1;exitX=0.5;exitY=1;exitDx=0;exitDy=0;entryX=0.5;entryY=0;entryDx=0;entryDy=0;strokeWidth=2;" edge="1" parent="1" source="FsQwMSM6BekYsBupdTfy-2" target="FsQwMSM6BekYsBupdTfy-3">
          <mxGeometry relative="1" as="geometry" />
        </mxCell>
        <mxCell id="FsQwMSM6BekYsBupdTfy-2" value="num1,num2,res int" style="rounded=0;whiteSpace=wrap;html=1;fillColor=#d5e8d4;strokeColor=#82b366;strokeWidth=4;" vertex="1" parent="1">
          <mxGeometry x="430" y="150" width="120" height="60" as="geometry" />
        </mxCell>
        <mxCell id="FsQwMSM6BekYsBupdTfy-12" value="" style="edgeStyle=none;rounded=0;orthogonalLoop=1;jettySize=auto;html=1;exitX=0.507;exitY=0.838;exitDx=0;exitDy=0;exitPerimeter=0;strokeWidth=2;" edge="1" parent="1" source="FsQwMSM6BekYsBupdTfy-3" target="FsQwMSM6BekYsBupdTfy-4">
          <mxGeometry relative="1" as="geometry" />
        </mxCell>
        <mxCell id="FsQwMSM6BekYsBupdTfy-3" value="&quot;Escribe un número&quot;" style="shape=document;whiteSpace=wrap;html=1;boundedLbl=1;fillColor=#d5e8d4;strokeColor=#82b366;strokeWidth=4;" vertex="1" parent="1">
          <mxGeometry x="430" y="270" width="120" height="80" as="geometry" />
        </mxCell>
        <mxCell id="FsQwMSM6BekYsBupdTfy-13" value="" style="edgeStyle=none;rounded=0;orthogonalLoop=1;jettySize=auto;html=1;strokeWidth=2;" edge="1" parent="1" source="FsQwMSM6BekYsBupdTfy-4" target="FsQwMSM6BekYsBupdTfy-5">
          <mxGeometry relative="1" as="geometry" />
        </mxCell>
        <mxCell id="FsQwMSM6BekYsBupdTfy-4" value="num1" style="shape=parallelogram;perimeter=parallelogramPerimeter;whiteSpace=wrap;html=1;fixedSize=1;fillColor=#d5e8d4;strokeColor=#82b366;strokeWidth=4;" vertex="1" parent="1">
          <mxGeometry x="430" y="380" width="120" height="60" as="geometry" />
        </mxCell>
        <mxCell id="FsQwMSM6BekYsBupdTfy-5" value="1" style="ellipse;whiteSpace=wrap;html=1;aspect=fixed;fillColor=#dae8fc;strokeColor=#6c8ebf;strokeWidth=4;" vertex="1" parent="1">
          <mxGeometry x="450" y="480" width="80" height="80" as="geometry" />
        </mxCell>
      </root>
    </mxGraphModel>
  </diagram>
</mxfile>
